{
    "asset" : {
        "generator" : "Khronos glTF Blender I/O v1.4.40",
        "version" : "2.0"
    },
    "scene" : 0,
    "scenes" : [
        {
            "name" : "Scene",
            "nodes" : [
                1
            ]
        }
    ],
    "nodes" : [
        {
            "mesh" : 0,
            "name" : "Circle",
            "rotation" : [
                0.007049851585179567,
                0.4265516996383667,
                0.0033248872496187687,
                0.9044296145439148
            ],
            "translation" : [
                -0.00620628334581852,
                -0.01941268891096115,
                0.005774732679128647
            ]
        },
        {
            "children" : [
                0
            ],
            "mesh" : 1,
            "name" : "Torus",
            "rotation" : [
                -0.007049852050840855,
                -0.4265516698360443,
                -0.0033248867839574814,
                0.9044296145439148
            ],
            "translation" : [
                0.005241908133029938,
                0.028861787170171738,
                0.020642384886741638
            ]
        }
    ],
    "materials" : [
        {
            "doubleSided" : true,
            "name" : "Material",
            "pbrMetallicRoughness" : {
                "baseColorTexture" : {
                    "index" : 0,
                    "texCoord" : 0
                },
                "metallicFactor" : 0,
                "roughnessFactor" : 0
            }
        },
        {
            "doubleSided" : true,
            "name" : "Material.003",
            "pbrMetallicRoughness" : {
                "baseColorTexture" : {
                    "index" : 1,
                    "texCoord" : 0
                },
                "metallicFactor" : 0,
                "roughnessFactor" : 0.653030276298523
            }
        }
    ],
    "meshes" : [
        {
            "name" : "Circle.001",
            "primitives" : [
                {
                    "attributes" : {
                        "POSITION" : 0,
                        "NORMAL" : 1,
                        "TEXCOORD_0" : 2
                    },
                    "indices" : 3,
                    "material" : 0
                }
            ]
        },
        {
            "name" : "Torus",
            "primitives" : [
                {
                    "attributes" : {
                        "POSITION" : 4,
                        "NORMAL" : 5,
                        "TEXCOORD_0" : 6
                    },
                    "indices" : 7,
                    "material" : 1
                }
            ]
        }
    ],
    "textures" : [
        {
            "sampler" : 0,
            "source" : 0
        },
        {
            "sampler" : 0,
            "source" : 1
        }
    ],
    "images" : [
        {
            "mimeType" : "image/png",
            "name" : "Plato",
            "uri" : "dona-textures/Plato.png"
        },
        {
            "mimeType" : "image/png",
            "name" : "textura pan",
            "uri" : "dona-textures/textura%20pan.png"
        }
    ],
    "accessors" : [
        {
            "bufferView" : 0,
            "componentType" : 5126,
            "count" : 46080,
            "max" : [
                0.11127239465713501,
                0,
                0.1112724021077156
            ],
            "min" : [
                -0.11127239465713501,
                -0.008105508983135223,
                -0.1112724170088768
            ],
            "type" : "VEC3"
        },
        {
            "bufferView" : 1,
            "componentType" : 5126,
            "count" : 46080,
            "type" : "VEC3"
        },
        {
            "bufferView" : 2,
            "componentType" : 5126,
            "count" : 46080,
            "type" : "VEC2"
        },
        {
            "bufferView" : 3,
            "componentType" : 5123,
            "count" : 69120,
            "type" : "SCALAR"
        },
        {
            "bufferView" : 4,
            "componentType" : 5126,
            "count" : 5537,
            "max" : [
                0.07238132506608963,
                0.028773032128810883,
                0.07144862413406372
            ],
            "min" : [
                -0.07267145067453384,
                -0.025840850546956062,
                -0.07318989932537079
            ],
            "type" : "VEC3"
        },
        {
            "bufferView" : 5,
            "componentType" : 5126,
            "count" : 5537,
            "type" : "VEC3"
        },
        {
            "bufferView" : 6,
            "componentType" : 5126,
            "count" : 5537,
            "type" : "VEC2"
        },
        {
            "bufferView" : 7,
            "componentType" : 5123,
            "count" : 32256,
            "type" : "SCALAR"
        }
    ],
    "bufferViews" : [
        {
            "buffer" : 0,
            "byteLength" : 552960,
            "byteOffset" : 0
        },
        {
            "buffer" : 0,
            "byteLength" : 552960,
            "byteOffset" : 552960
        },
        {
            "buffer" : 0,
            "byteLength" : 368640,
            "byteOffset" : 1105920
        },
        {
            "buffer" : 0,
            "byteLength" : 138240,
            "byteOffset" : 1474560
        },
        {
            "buffer" : 0,
            "byteLength" : 66444,
            "byteOffset" : 1612800
        },
        {
            "buffer" : 0,
            "byteLength" : 66444,
            "byteOffset" : 1679244
        },
        {
            "buffer" : 0,
            "byteLength" : 44296,
            "byteOffset" : 1745688
        },
        {
            "buffer" : 0,
            "byteLength" : 64512,
            "byteOffset" : 1789984
        }
    ],
    "samplers" : [
        {
            "magFilter" : 9729,
            "minFilter" : 9986
        }
    ],
    "buffers" : [
        {
            "byteLength" : 1854496,
            "uri" : "dona.bin"
        }
    ]
}
