{
    "asset" : {
        "generator" : "Khronos glTF Blender I/O v1.4.40",
        "version" : "2.0"
    },
    "scene" : 0,
    "scenes" : [
        {
            "name" : "Scene",
            "nodes" : [
                1,
                3
            ]
        }
    ],
    "nodes" : [
        {
            "mesh" : 0,
            "name" : "Cylinder",
            "scale" : [
                2.320054531097412,
                0.08779460936784744,
                1.3336535692214966
            ],
            "translation" : [
                -0.0009465999901294708,
                0.05825260281562805,
                -0.0026702038012444973
            ]
        },
        {
            "children" : [
                0
            ],
            "mesh" : 1,
            "name" : "Taza",
            "scale" : [
                0.5640265345573425,
                0.5640265345573425,
                0.5640265345573425
            ],
            "translation" : [
                -0.011809833347797394,
                0.017059151083230972,
                0.0020021721720695496
            ]
        },
        {
            "mesh" : 2,
            "name" : "Circle",
            "rotation" : [
                0.007049852050840855,
                0.4265516698360443,
                0.0033248867839574814,
                0.9044296741485596
            ],
            "scale" : [
                0.7432652115821838,
                0.7432653307914734,
                0.7432653307914734
            ],
            "translation" : [
                -0.006206303834915161,
                -0.01941269263625145,
                0.005774740129709244
            ]
        },
        {
            "children" : [
                2
            ],
            "mesh" : 3,
            "name" : "Torus",
            "rotation" : [
                -0.007049852050840855,
                -0.4265516698360443,
                -0.0033248867839574814,
                0.9044296145439148
            ],
            "translation" : [
                0.11883087456226349,
                0.028861787170171738,
                0.20961065590381622
            ]
        }
    ],
    "materials" : [
        {
            "doubleSided" : true,
            "name" : "Material.004",
            "pbrMetallicRoughness" : {
                "baseColorTexture" : {
                    "index" : 0,
                    "texCoord" : 0
                },
                "metallicFactor" : 0,
                "roughnessFactor" : 0.5
            }
        },
        {
            "doubleSided" : true,
            "name" : "Material.005",
            "pbrMetallicRoughness" : {
                "baseColorTexture" : {
                    "index" : 1,
                    "texCoord" : 0
                },
                "metallicFactor" : 0,
                "roughnessFactor" : 0.5
            }
        },
        {
            "doubleSided" : true,
            "name" : "Material",
            "pbrMetallicRoughness" : {
                "baseColorTexture" : {
                    "index" : 2,
                    "texCoord" : 0
                },
                "metallicFactor" : 0,
                "roughnessFactor" : 0
            }
        },
        {
            "doubleSided" : true,
            "name" : "Material.003",
            "pbrMetallicRoughness" : {
                "baseColorTexture" : {
                    "index" : 3,
                    "texCoord" : 0
                },
                "metallicFactor" : 0,
                "roughnessFactor" : 0.653030276298523
            }
        }
    ],
    "meshes" : [
        {
            "name" : "Cylinder.001",
            "primitives" : [
                {
                    "attributes" : {
                        "POSITION" : 0,
                        "NORMAL" : 1,
                        "TEXCOORD_0" : 2
                    },
                    "indices" : 3,
                    "material" : 0
                }
            ]
        },
        {
            "name" : "Circle",
            "primitives" : [
                {
                    "attributes" : {
                        "POSITION" : 4,
                        "NORMAL" : 5,
                        "TEXCOORD_0" : 6
                    },
                    "indices" : 7,
                    "material" : 1
                }
            ]
        },
        {
            "name" : "Circle.001",
            "primitives" : [
                {
                    "attributes" : {
                        "POSITION" : 8,
                        "NORMAL" : 9,
                        "TEXCOORD_0" : 10
                    },
                    "indices" : 11,
                    "material" : 2
                }
            ]
        },
        {
            "name" : "Torus",
            "primitives" : [
                {
                    "attributes" : {
                        "POSITION" : 12,
                        "NORMAL" : 13,
                        "TEXCOORD_0" : 14
                    },
                    "indices" : 15,
                    "material" : 3
                }
            ]
        }
    ],
    "textures" : [
        {
            "sampler" : 0,
            "source" : 0
        },
        {
            "sampler" : 0,
            "source" : 1
        },
        {
            "sampler" : 0,
            "source" : 2
        },
        {
            "sampler" : 0,
            "source" : 3
        }
    ],
    "images" : [
        {
            "mimeType" : "image/png",
            "name" : "taza",
            "uri" : "dona-textures/taza.png"
        },
        {
            "mimeType" : "image/png",
            "name" : "plato del cafe",
            "uri" : "dona-textures/plato%20del%20cafe.png"
        },
        {
            "mimeType" : "image/png",
            "name" : "Plato",
            "uri" : "dona-textures/Plato.png"
        },
        {
            "mimeType" : "image/png",
            "name" : "textura pan",
            "uri" : "dona-textures/textura%20pan.png"
        }
    ],
    "accessors" : [
        {
            "bufferView" : 0,
            "componentType" : 5126,
            "count" : 10784,
            "max" : [
                0.08233154565095901,
                0.9545117616653442,
                0.08607924729585648
            ],
            "min" : [
                -0.05000578612089157,
                -0.9593104720115662,
                -0.08607923239469528
            ],
            "type" : "VEC3"
        },
        {
            "bufferView" : 1,
            "componentType" : 5126,
            "count" : 10784,
            "type" : "VEC3"
        },
        {
            "bufferView" : 2,
            "componentType" : 5126,
            "count" : 10784,
            "type" : "VEC2"
        },
        {
            "bufferView" : 3,
            "componentType" : 5123,
            "count" : 59328,
            "type" : "SCALAR"
        },
        {
            "bufferView" : 4,
            "componentType" : 5126,
            "count" : 3158,
            "max" : [
                0.17506222426891327,
                -0.0013789726654067636,
                0.17506223917007446
            ],
            "min" : [
                -0.17506222426891327,
                -0.026444220915436745,
                -0.17506223917007446
            ],
            "type" : "VEC3"
        },
        {
            "bufferView" : 5,
            "componentType" : 5126,
            "count" : 3158,
            "type" : "VEC3"
        },
        {
            "bufferView" : 6,
            "componentType" : 5126,
            "count" : 3158,
            "type" : "VEC2"
        },
        {
            "bufferView" : 7,
            "componentType" : 5123,
            "count" : 17664,
            "type" : "SCALAR"
        },
        {
            "bufferView" : 8,
            "componentType" : 5126,
            "count" : 46080,
            "max" : [
                0.14970751106739044,
                0,
                0.14970751106739044
            ],
            "min" : [
                -0.14970751106739044,
                -0.010905269533395767,
                -0.14970752596855164
            ],
            "type" : "VEC3"
        },
        {
            "bufferView" : 9,
            "componentType" : 5126,
            "count" : 46080,
            "type" : "VEC3"
        },
        {
            "bufferView" : 10,
            "componentType" : 5126,
            "count" : 46080,
            "type" : "VEC2"
        },
        {
            "bufferView" : 11,
            "componentType" : 5123,
            "count" : 69120,
            "type" : "SCALAR"
        },
        {
            "bufferView" : 12,
            "componentType" : 5126,
            "count" : 5537,
            "max" : [
                0.07238132506608963,
                0.028773032128810883,
                0.07144862413406372
            ],
            "min" : [
                -0.07267145067453384,
                -0.025840850546956062,
                -0.07318989932537079
            ],
            "type" : "VEC3"
        },
        {
            "bufferView" : 13,
            "componentType" : 5126,
            "count" : 5537,
            "type" : "VEC3"
        },
        {
            "bufferView" : 14,
            "componentType" : 5126,
            "count" : 5537,
            "type" : "VEC2"
        },
        {
            "bufferView" : 15,
            "componentType" : 5123,
            "count" : 32256,
            "type" : "SCALAR"
        }
    ],
    "bufferViews" : [
        {
            "buffer" : 0,
            "byteLength" : 129408,
            "byteOffset" : 0
        },
        {
            "buffer" : 0,
            "byteLength" : 129408,
            "byteOffset" : 129408
        },
        {
            "buffer" : 0,
            "byteLength" : 86272,
            "byteOffset" : 258816
        },
        {
            "buffer" : 0,
            "byteLength" : 118656,
            "byteOffset" : 345088
        },
        {
            "buffer" : 0,
            "byteLength" : 37896,
            "byteOffset" : 463744
        },
        {
            "buffer" : 0,
            "byteLength" : 37896,
            "byteOffset" : 501640
        },
        {
            "buffer" : 0,
            "byteLength" : 25264,
            "byteOffset" : 539536
        },
        {
            "buffer" : 0,
            "byteLength" : 35328,
            "byteOffset" : 564800
        },
        {
            "buffer" : 0,
            "byteLength" : 552960,
            "byteOffset" : 600128
        },
        {
            "buffer" : 0,
            "byteLength" : 552960,
            "byteOffset" : 1153088
        },
        {
            "buffer" : 0,
            "byteLength" : 368640,
            "byteOffset" : 1706048
        },
        {
            "buffer" : 0,
            "byteLength" : 138240,
            "byteOffset" : 2074688
        },
        {
            "buffer" : 0,
            "byteLength" : 66444,
            "byteOffset" : 2212928
        },
        {
            "buffer" : 0,
            "byteLength" : 66444,
            "byteOffset" : 2279372
        },
        {
            "buffer" : 0,
            "byteLength" : 44296,
            "byteOffset" : 2345816
        },
        {
            "buffer" : 0,
            "byteLength" : 64512,
            "byteOffset" : 2390112
        }
    ],
    "samplers" : [
        {
            "magFilter" : 9729,
            "minFilter" : 9986
        }
    ],
    "buffers" : [
        {
            "byteLength" : 2454624,
            "uri" : "dona.bin"
        }
    ]
}
